# Blender 3.6.4
# www.blender.org
mtllib test.mtl
o Sphere
v 0.000000 21.895632 -0.707107
v 0.224936 22.112404 -0.309597
v 0.415627 21.895632 -0.572061
v 0.543043 21.571207 -0.747434
v 0.587785 21.188524 -0.809017
v 0.543043 20.805841 -0.747434
v 0.415627 20.481417 -0.572061
v 0.224936 20.264645 -0.309597
v 0.363954 22.112404 -0.118256
v 0.672498 21.895632 -0.218508
v 0.878662 21.571207 -0.285494
v 0.951057 21.188524 -0.309017
v 0.878662 20.805841 -0.285494
v 0.672498 20.481417 -0.218508
v 0.363954 20.264645 -0.118256
v 0.363954 22.112404 0.118256
v 0.672498 21.895632 0.218508
v 0.878662 21.571207 0.285494
v 0.951057 21.188524 0.309017
v 0.878662 20.805841 0.285494
v 0.672498 20.481417 0.218508
v 0.363954 20.264645 0.118256
v 0.224936 22.112404 0.309597
v 0.415627 21.895632 0.572061
v 0.543043 21.571207 0.747434
v 0.587785 21.188524 0.809017
v 0.543043 20.805841 0.747434
v 0.415627 20.481417 0.572061
v 0.224936 20.264645 0.309597
v 0.000000 22.112404 0.382684
v 0.000000 21.895632 0.707107
v 0.000000 21.571207 0.923879
v 0.000000 21.188524 1.000000
v 0.000000 20.805841 0.923879
v 0.000000 20.481417 0.707107
v 0.000000 20.264645 0.382684
v -0.224936 22.112404 0.309597
v -0.415627 21.895632 0.572061
v -0.543043 21.571207 0.747434
v -0.587785 21.188524 0.809017
v -0.543043 20.805841 0.747434
v -0.415627 20.481417 0.572061
v -0.224936 20.264645 0.309597
v -0.363954 22.112404 0.118256
v -0.672498 21.895632 0.218508
v -0.878662 21.571207 0.285495
v -0.951057 21.188524 0.309017
v -0.878662 20.805841 0.285495
v -0.672498 20.481417 0.218508
v -0.363954 20.264645 0.118256
v 0.000000 20.188524 0.000000
v -0.363954 22.112404 -0.118256
v -0.672498 21.895632 -0.218508
v -0.878662 21.571207 -0.285494
v -0.951057 21.188524 -0.309017
v -0.878662 20.805841 -0.285494
v -0.672498 20.481417 -0.218508
v -0.363954 20.264645 -0.118256
v 0.000000 22.188524 0.000000
v -0.224936 22.112404 -0.309597
v -0.415627 21.895632 -0.572061
v -0.543043 21.571207 -0.747434
v -0.587785 21.188524 -0.809017
v -0.543043 20.805841 -0.747434
v -0.415627 20.481417 -0.572061
v -0.224936 20.264645 -0.309597
v -0.000000 22.112404 -0.382684
v -0.000000 21.571207 -0.923880
v -0.000000 21.188524 -1.000000
v -0.000000 20.805841 -0.923880
v 0.000000 20.481417 -0.707107
v -0.000000 20.264645 -0.382684
v 0.000000 20.170485 -2.581193
v 0.723607 20.723265 -2.055468
v -0.276388 20.723265 -1.730544
v -0.894426 20.723269 -2.581193
v -0.276388 20.723265 -3.431842
v 0.723607 20.723265 -3.106919
v 0.276388 21.617704 -1.730544
v -0.723607 21.617704 -2.055468
v -0.723607 21.617704 -3.106919
v 0.276388 21.617704 -3.431842
v 0.894426 21.617701 -2.581193
v 0.000000 22.170485 -2.581193
v -0.162456 20.319830 -2.081198
v 0.425323 20.319830 -2.272182
v 0.262869 20.644747 -1.772182
v 0.850648 20.644749 -2.581193
v 0.425323 20.319830 -2.890205
v -0.525730 20.319834 -2.581193
v -0.688189 20.644749 -2.081196
v -0.162456 20.319830 -3.081188
v -0.688189 20.644749 -3.081190
v 0.262869 20.644747 -3.390205
v 0.951058 21.170485 -2.272181
v 0.951058 21.170485 -2.890206
v 0.000000 21.170485 -1.581193
v 0.587786 21.170485 -1.772177
v -0.951058 21.170485 -2.272181
v -0.587786 21.170485 -1.772177
v -0.587786 21.170485 -3.390210
v -0.951058 21.170485 -2.890206
v 0.587786 21.170485 -3.390210
v 0.000000 21.170485 -3.581193
v 0.688189 21.696220 -2.081196
v -0.262869 21.696222 -1.772182
v -0.850648 21.696220 -2.581193
v -0.262869 21.696222 -3.390205
v 0.688189 21.696220 -3.081190
v 0.162456 22.021139 -2.081198
v 0.525730 22.021135 -2.581193
v -0.425323 22.021139 -2.272182
v -0.425323 22.021139 -2.890205
v 0.162456 22.021139 -3.081188
vn -0.0000 -0.9099 -0.4149
vn -0.0000 -0.6883 -0.7254
vn 0.4264 -0.6883 -0.5869
vn 0.2439 -0.9099 -0.3357
vn -0.0000 -0.3697 -0.9291
vn -0.0000 -0.0000 -1.0000
vn 0.5878 -0.0000 -0.8090
vn 0.5461 -0.3697 -0.7517
vn -0.0000 0.3697 -0.9291
vn -0.0000 0.6883 -0.7254
vn 0.4264 0.6883 -0.5869
vn 0.5461 0.3697 -0.7517
vn -0.0000 0.9099 -0.4149
vn -0.0000 1.0000 -0.0000
vn 0.2439 0.9099 -0.3357
vn -0.0000 -1.0000 -0.0000
vn 0.6899 0.6883 -0.2242
vn 0.8837 0.3697 -0.2871
vn 0.3946 0.9099 -0.1282
vn 0.3946 -0.9099 -0.1282
vn 0.8837 -0.3697 -0.2871
vn 0.6899 -0.6883 -0.2242
vn 0.9511 -0.0000 -0.3090
vn 0.3946 -0.9099 0.1282
vn 0.8837 -0.3697 0.2871
vn 0.6899 -0.6883 0.2242
vn 0.8837 0.3697 0.2871
vn 0.9511 -0.0000 0.3090
vn 0.3946 0.9099 0.1282
vn 0.6899 0.6883 0.2242
vn 0.2439 0.9099 0.3357
vn 0.4264 0.6883 0.5869
vn 0.4264 -0.6883 0.5869
vn 0.2439 -0.9099 0.3357
vn 0.5878 -0.0000 0.8090
vn 0.5461 -0.3697 0.7517
vn 0.5461 0.3697 0.7517
vn -0.0000 -0.6883 0.7254
vn -0.0000 -0.9099 0.4149
vn -0.0000 -0.0000 1.0000
vn -0.0000 -0.3697 0.9291
vn -0.0000 0.6883 0.7254
vn -0.0000 0.3697 0.9291
vn -0.0000 0.9099 0.4149
vn -0.2439 0.9099 0.3357
vn -0.2439 -0.9099 0.3357
vn -0.5461 -0.3697 0.7517
vn -0.4264 -0.6883 0.5869
vn -0.5461 0.3697 0.7517
vn -0.5878 -0.0000 0.8090
vn -0.4264 0.6883 0.5869
vn -0.8837 -0.3697 0.2871
vn -0.6899 -0.6883 0.2242
vn -0.8837 0.3697 0.2871
vn -0.9511 -0.0000 0.3090
vn -0.3946 0.9099 0.1282
vn -0.6899 0.6883 0.2242
vn -0.3946 -0.9099 0.1282
vn -0.6899 -0.6883 -0.2242
vn -0.3946 -0.9099 -0.1282
vn -0.9511 -0.0000 -0.3090
vn -0.8837 -0.3697 -0.2871
vn -0.6899 0.6883 -0.2242
vn -0.8837 0.3697 -0.2871
vn -0.3946 0.9099 -0.1282
vn -0.5878 -0.0000 -0.8090
vn -0.5461 -0.3697 -0.7517
vn -0.4264 0.6883 -0.5869
vn -0.5461 0.3697 -0.7517
vn -0.2439 0.9099 -0.3357
vn -0.2439 -0.9099 -0.3357
vn -0.4264 -0.6883 -0.5869
vn 0.4253 -0.8507 0.3090
vn -0.1625 -0.8507 0.5000
vn 0.7236 -0.4472 0.5257
vn 0.8506 -0.5257 -0.0000
vn -0.5257 -0.8507 -0.0000
vn -0.1625 -0.8507 -0.5000
vn 0.4253 -0.8507 -0.3090
vn -0.2764 -0.4472 0.8506
vn 0.2629 -0.5257 0.8090
vn -0.8944 -0.4472 -0.0000
vn -0.6882 -0.5257 0.5000
vn -0.2764 -0.4472 -0.8506
vn -0.6882 -0.5257 -0.5000
vn 0.7236 -0.4472 -0.5257
vn 0.2629 -0.5257 -0.8090
vn 0.2764 0.4472 0.8506
vn 0.6882 0.5257 0.5000
vn 0.1625 0.8507 0.5000
vn -0.7236 0.4472 0.5257
vn -0.2629 0.5257 0.8090
vn -0.4253 0.8507 0.3090
vn -0.7236 0.4472 -0.5257
vn -0.8506 0.5257 -0.0000
vn -0.4253 0.8507 -0.3090
vn 0.2764 0.4472 -0.8506
vn -0.2629 0.5257 -0.8090
vn 0.1625 0.8507 -0.5000
vn 0.8944 0.4472 -0.0000
vn 0.6882 0.5257 -0.5000
vn 0.5257 0.8507 -0.0000
vt 0.700000 0.125000
vt 0.700000 0.250000
vt 0.600000 0.250000
vt 0.600000 0.125000
vt 0.700000 0.375000
vt 0.700000 0.500000
vt 0.600000 0.500000
vt 0.600000 0.375000
vt 0.700000 0.625000
vt 0.700000 0.750000
vt 0.600000 0.750000
vt 0.600000 0.625000
vt 0.700000 0.875000
vt 0.650000 1.000000
vt 0.600000 0.875000
vt 0.650000 0.000000
vt 0.500000 0.750000
vt 0.500000 0.625000
vt 0.550000 1.000000
vt 0.500000 0.875000
vt 0.550000 0.000000
vt 0.500000 0.125000
vt 0.500000 0.375000
vt 0.500000 0.250000
vt 0.500000 0.500000
vt 0.450000 0.000000
vt 0.400000 0.125000
vt 0.400000 0.375000
vt 0.400000 0.250000
vt 0.400000 0.625000
vt 0.400000 0.500000
vt 0.400000 0.875000
vt 0.400000 0.750000
vt 0.450000 1.000000
vt 0.300000 0.875000
vt 0.300000 0.750000
vt 0.300000 0.250000
vt 0.300000 0.125000
vt 0.300000 0.500000
vt 0.300000 0.375000
vt 0.300000 0.625000
vt 0.350000 1.000000
vt 0.350000 0.000000
vt 0.200000 0.250000
vt 0.200000 0.125000
vt 0.200000 0.500000
vt 0.200000 0.375000
vt 0.200000 0.750000
vt 0.200000 0.625000
vt 0.250000 1.000000
vt 0.200000 0.875000
vt 0.250000 0.000000
vt 0.150000 1.000000
vt 0.100000 0.875000
vt 0.150000 0.000000
vt 0.100000 0.125000
vt 0.100000 0.375000
vt 0.100000 0.250000
vt 0.100000 0.625000
vt 0.100000 0.500000
vt 0.100000 0.750000
vt 0.000000 0.375000
vt 0.000000 0.250000
vt 0.000000 0.625000
vt 0.000000 0.500000
vt 0.000000 0.875000
vt 0.000000 0.750000
vt 0.000000 0.125000
vt 0.050000 1.000000
vt 0.050000 0.000000
vt 1.000000 0.125000
vt 1.000000 0.250000
vt 0.900000 0.250000
vt 0.900000 0.125000
vt 1.000000 0.375000
vt 1.000000 0.500000
vt 0.900000 0.500000
vt 0.900000 0.375000
vt 1.000000 0.625000
vt 1.000000 0.750000
vt 0.900000 0.750000
vt 0.900000 0.625000
vt 1.000000 0.875000
vt 0.950000 1.000000
vt 0.900000 0.875000
vt 0.950000 0.000000
vt 0.800000 0.500000
vt 0.800000 0.375000
vt 0.800000 0.750000
vt 0.800000 0.625000
vt 0.850000 1.000000
vt 0.800000 0.875000
vt 0.850000 0.000000
vt 0.800000 0.125000
vt 0.800000 0.250000
vt 0.750000 0.000000
vt 0.750000 1.000000
vt 0.181819 0.000000
vt 0.227273 0.078731
vt 0.136365 0.078731
vt 0.272728 0.157461
vt 0.318182 0.078731
vt 0.363637 0.157461
vt 0.909091 0.000000
vt 0.954545 0.078731
vt 0.863636 0.078731
vt 0.727273 0.000000
vt 0.772727 0.078731
vt 0.681818 0.078731
vt 0.545455 0.000000
vt 0.590909 0.078731
vt 0.500000 0.078731
vt 0.318182 0.236191
vt 0.090910 0.157461
vt 0.181819 0.157461
vt 0.136365 0.236191
vt 0.818182 0.157461
vt 0.909091 0.157461
vt 0.863636 0.236191
vt 0.636364 0.157461
vt 0.727273 0.157461
vt 0.681818 0.236191
vt 0.454546 0.157461
vt 0.545455 0.157461
vt 0.500000 0.236191
vt 0.227273 0.236191
vt 0.045455 0.236191
vt 0.772727 0.236191
vt 0.590909 0.236191
vt 0.409092 0.236191
vt 0.181819 0.314921
vt 0.272728 0.314921
vt 0.227273 0.393651
vt 0.000000 0.314921
vt 0.090910 0.314921
vt 0.045455 0.393651
vt 0.727273 0.314921
vt 0.818182 0.314921
vt 0.772727 0.393651
vt 0.545455 0.314921
vt 0.636364 0.314921
vt 0.590909 0.393651
vt 0.363637 0.314921
vt 0.454546 0.314921
vt 0.409092 0.393651
vt 0.500000 0.393651
vt 0.454546 0.472382
vt 0.681818 0.393651
vt 0.636364 0.472382
vt 0.863636 0.393651
vt 0.818182 0.472382
vt 0.909091 0.314921
vt 0.136365 0.393651
vt 0.090910 0.472382
vt 0.318182 0.393651
vt 0.272728 0.472382
vt 0.954545 0.236191
vt 1.000000 0.157461
vt 0.409092 0.078731
vt 0.363637 0.000000
s 1
f 72/1/1 71/2/2 7/3/3 8/4/4
f 70/5/5 69/6/6 5/7/7 6/8/8
f 68/9/9 1/10/10 3/11/11 4/12/12
f 67/13/13 59/14/14 2/15/15
f 51/16/16 72/1/1 8/4/4
f 71/2/2 70/5/5 6/8/8 7/3/3
f 69/6/6 68/9/9 4/12/12 5/7/7
f 1/10/10 67/13/13 2/15/15 3/11/11
f 4/12/12 3/11/11 10/17/17 11/18/18
f 2/15/15 59/19/14 9/20/19
f 51/21/16 8/4/4 15/22/20
f 7/3/3 6/8/8 13/23/21 14/24/22
f 5/7/7 4/12/12 11/18/18 12/25/23
f 3/11/11 2/15/15 9/20/19 10/17/17
f 8/4/4 7/3/3 14/24/22 15/22/20
f 6/8/8 5/7/7 12/25/23 13/23/21
f 51/26/16 15/22/20 22/27/24
f 14/24/22 13/23/21 20/28/25 21/29/26
f 12/25/23 11/18/18 18/30/27 19/31/28
f 10/17/17 9/20/19 16/32/29 17/33/30
f 15/22/20 14/24/22 21/29/26 22/27/24
f 13/23/21 12/25/23 19/31/28 20/28/25
f 11/18/18 10/17/17 17/33/30 18/30/27
f 9/20/19 59/34/14 16/32/29
f 17/33/30 16/32/29 23/35/31 24/36/32
f 22/27/24 21/29/26 28/37/33 29/38/34
f 20/28/25 19/31/28 26/39/35 27/40/36
f 18/30/27 17/33/30 24/36/32 25/41/37
f 16/32/29 59/42/14 23/35/31
f 51/43/16 22/27/24 29/38/34
f 21/29/26 20/28/25 27/40/36 28/37/33
f 19/31/28 18/30/27 25/41/37 26/39/35
f 29/38/34 28/37/33 35/44/38 36/45/39
f 27/40/36 26/39/35 33/46/40 34/47/41
f 25/41/37 24/36/32 31/48/42 32/49/43
f 23/35/31 59/50/14 30/51/44
f 51/52/16 29/38/34 36/45/39
f 28/37/33 27/40/36 34/47/41 35/44/38
f 26/39/35 25/41/37 32/49/43 33/46/40
f 24/36/32 23/35/31 30/51/44 31/48/42
f 30/51/44 59/53/14 37/54/45
f 51/55/16 36/45/39 43/56/46
f 35/44/38 34/47/41 41/57/47 42/58/48
f 33/46/40 32/49/43 39/59/49 40/60/50
f 31/48/42 30/51/44 37/54/45 38/61/51
f 36/45/39 35/44/38 42/58/48 43/56/46
f 34/47/41 33/46/40 40/60/50 41/57/47
f 32/49/43 31/48/42 38/61/51 39/59/49
f 42/58/48 41/57/47 48/62/52 49/63/53
f 40/60/50 39/59/49 46/64/54 47/65/55
f 38/61/51 37/54/45 44/66/56 45/67/57
f 43/56/46 42/58/48 49/63/53 50/68/58
f 41/57/47 40/60/50 47/65/55 48/62/52
f 39/59/49 38/61/51 45/67/57 46/64/54
f 37/54/45 59/69/14 44/66/56
f 51/70/16 43/56/46 50/68/58
f 50/71/58 49/72/53 57/73/59 58/74/60
f 48/75/52 47/76/55 55/77/61 56/78/62
f 46/79/54 45/80/57 53/81/63 54/82/64
f 44/83/56 59/84/14 52/85/65
f 51/86/16 50/71/58 58/74/60
f 49/72/53 48/75/52 56/78/62 57/73/59
f 47/76/55 46/79/54 54/82/64 55/77/61
f 45/80/57 44/83/56 52/85/65 53/81/63
f 56/78/62 55/77/61 63/87/66 64/88/67
f 54/82/64 53/81/63 61/89/68 62/90/69
f 52/85/65 59/91/14 60/92/70
f 51/93/16 58/74/60 66/94/71
f 57/73/59 56/78/62 64/88/67 65/95/72
f 55/77/61 54/82/64 62/90/69 63/87/66
f 53/81/63 52/85/65 60/92/70 61/89/68
f 58/74/60 57/73/59 65/95/72 66/94/71
f 51/96/16 66/94/71 72/1/1
f 65/95/72 64/88/67 70/5/5 71/2/2
f 63/87/66 62/90/69 68/9/9 69/6/6
f 61/89/68 60/92/70 67/13/13 1/10/10
f 66/94/71 65/95/72 71/2/2 72/1/1
f 64/88/67 63/87/66 69/6/6 70/5/5
f 62/90/69 61/89/68 1/10/10 68/9/9
f 60/92/70 59/97/14 67/13/13
f 73/98/16 86/99/73 85/100/74
f 74/101/75 86/102/73 88/103/76
f 73/104/16 85/105/74 90/106/77
f 73/107/16 90/108/77 92/109/78
f 73/110/16 92/111/78 89/112/79
f 74/101/75 88/103/76 95/113/28
f 75/114/80 87/115/81 97/116/40
f 76/117/82 91/118/83 99/119/55
f 77/120/84 93/121/85 101/122/66
f 78/123/86 94/124/87 103/125/7
f 74/101/75 95/113/28 98/126/35
f 75/114/80 97/116/40 100/127/50
f 76/117/82 99/119/55 102/128/61
f 77/120/84 101/122/66 104/129/6
f 78/123/86 103/125/7 96/130/23
f 79/131/88 105/132/89 110/133/90
f 80/134/91 106/135/92 112/136/93
f 81/137/94 107/138/95 113/139/96
f 82/140/97 108/141/98 114/142/99
f 83/143/100 109/144/101 111/145/102
f 111/145/102 114/146/99 84/147/14
f 111/145/102 109/144/101 114/146/99
f 109/144/101 82/140/97 114/146/99
f 114/142/99 113/148/96 84/149/14
f 114/142/99 108/141/98 113/148/96
f 108/141/98 81/137/94 113/148/96
f 113/139/96 112/150/93 84/151/14
f 113/139/96 107/138/95 112/150/93
f 107/138/95 80/152/91 112/150/93
f 112/136/93 110/153/90 84/154/14
f 112/136/93 106/135/92 110/153/90
f 106/135/92 79/131/88 110/153/90
f 110/133/90 111/155/102 84/156/14
f 110/133/90 105/132/89 111/155/102
f 105/132/89 83/143/100 111/155/102
f 96/130/23 109/144/101 83/143/100
f 96/130/23 103/125/7 109/144/101
f 103/125/7 82/140/97 109/144/101
f 104/129/6 108/141/98 82/140/97
f 104/129/6 101/122/66 108/141/98
f 101/122/66 81/137/94 108/141/98
f 102/128/61 107/138/95 81/137/94
f 102/128/61 99/119/55 107/138/95
f 99/119/55 80/152/91 107/138/95
f 100/127/50 106/135/92 80/134/91
f 100/127/50 97/116/40 106/135/92
f 97/116/40 79/131/88 106/135/92
f 98/126/35 105/132/89 79/131/88
f 98/126/35 95/113/28 105/132/89
f 95/113/28 83/143/100 105/132/89
f 103/125/7 104/129/6 82/140/97
f 103/125/7 94/124/87 104/129/6
f 94/124/87 77/120/84 104/129/6
f 101/122/66 102/128/61 81/137/94
f 101/122/66 93/121/85 102/128/61
f 93/121/85 76/117/82 102/128/61
f 99/119/55 100/157/50 80/152/91
f 99/119/55 91/118/83 100/157/50
f 91/118/83 75/158/80 100/157/50
f 97/116/40 98/126/35 79/131/88
f 97/116/40 87/115/81 98/126/35
f 87/115/81 74/101/75 98/126/35
f 95/113/28 96/130/23 83/143/100
f 95/113/28 88/103/76 96/130/23
f 88/103/76 78/123/86 96/130/23
f 89/112/79 94/124/87 78/123/86
f 89/112/79 92/111/78 94/124/87
f 92/111/78 77/120/84 94/124/87
f 92/109/78 93/121/85 77/120/84
f 92/109/78 90/108/77 93/121/85
f 90/108/77 76/117/82 93/121/85
f 90/106/77 91/118/83 76/117/82
f 90/106/77 85/105/74 91/118/83
f 85/105/74 75/158/80 91/118/83
f 88/103/76 89/159/79 78/123/86
f 88/103/76 86/102/73 89/159/79
f 86/102/73 73/160/16 89/159/79
f 85/100/74 87/115/81 75/114/80
f 85/100/74 86/99/73 87/115/81
f 86/99/73 74/101/75 87/115/81
